#!OML:ASF F:\VICON\USERDATA\INSTALL\rory3\rory3.ASF
:FULLY-SPECIFIED
:DEGREES
31
root 4.1421912617970005 18.074934649989913 -0.21236320962358235 -2.5878558416680097 -2.1760130750363156 -4.984906486883001
lfemur -25.046036719123567 5.9349063624778555 -13.361057457280877
ltibia 61.800228342287966
lfoot -10.202754251317835 -3.0274945684569516
ltoes -5.7475394029851605
rfemur -3.2444943545163003 6.326948423353154 32.069836063907005
rtibia 36.781528113331454
rfoot -10.431266388146527 -3.8785740919547944
rtoes 5.724346604602729
lowerback nan 0.8716264501213336 4.979221220704312
upperback 0.21225826119779911 1.3812860472927382 2.3264759537361117
thorax -6.214181436024734 0.5787927844229079 -0.12448850406497347
lowerneck -16.089253648461124 -3.4373341211423134 -1.8834766614683724
upperneck 21.879258584287737 -4.514364286744263 -0.009715296385482297
head 10.287202708754533 -2.282141499931029 -0.17423744010657546
lclavicle -3.0994102794087333e-15 1.8330627902333176e-15
lhumerus -35.37765801509615 -0.49164822301051775 84.72871959026686
lradius 26.88408356606444
lwrist 6.805290325319664
lhand -26.04383330888734 25.169638715476275
lfingers nan
lthumb 0.4269958175744448 55.13894749100835
rclavicle -1.2422248830160016e-15 1.118669247234756e-15
rhumerus -23.867666806616658 -10.933420205923158 -81.37705043773897
rradius 26.33090076013805
rwrist 2.789547593730955
rhand -18.18608358293012 nan
rfingers nan
rthumb 8.064450989704794 -6.316886089849296
32
root 4.148575000835639 18.00315025258098 0.04597853455494594 -1.9964312992980164 -2.806185060816829 -5.927237539538799
lfemur -27.84944180296253 6.013150060491695 -13.070027259931459
ltibia 56.487244170752234
lfoot -12.218671155936889 -0.12025510806185746
ltoes -6.918759796604319
rfemur -1.685357421344591 6.561274464545473 32.689495076284075
rtibia 35.40766284763613
rfoot -11.052163448528272 -4.221653698399281
rtoes 6.20165692692167
lowerback nan 1.2716935158644744 5.805519454031359
upperback 0.296014040233194 1.986123135256626 2.294252678144191
thorax -6.092438559682158 0.8438691447432185 -0.7951503098769179
lowerneck -16.293466532669225 -3.354202170799745 -1.7802764454595208
upperneck 21.672873548131115 -4.6649964731031455 0.01675607942581059
head 10.075720196656697 -2.322867958729157 -0.2449467524800098
lclavicle -2.333329164018026e-15 -3.731190369915211e-15
lhumerus -36.5493652457148 0.6076765891936693 84.30766651523298
lradius 26.327041106363435
lwrist 7.003672453165862
lhand -25.87338981390256 25.864686170445857
lfingers nan
lthumb 0.3891395835808549 54.79255520844707
rclavicle -6.519934359684356e-16 -2.271769642832358e-15
rhumerus -23.293265389505716 -10.31251773742197 -81.49451212341388
rradius 27.618974203398345
rwrist 1.3073140547631341
rhand -18.24861109390241 nan
rfingers nan
rthumb 7.897519975048645 -6.101691883049462
33
root 4.158993084365925 17.959757608106226 0.3143281884538922 -1.4816384057022844 -3.3479675495847054 -6.3898832785168
lfemur -29.476131264921975 4.713555706067311 -12.835913637058413
ltibia 48.09198341113105
lfoot -11.76409307419164 3.662765271647294
ltoes -7.300616443065518
rfemur 0.40493133969782136 6.486238003343837 33.00723591640002
rtibia 33.976819415990505
rfoot -10.600129744295842 -4.487261471068107
rtoes 6.044411152861529
lowerback nan 1.5283968785742903 6.08075365970225
upperback 0.19464303678639003 2.4797078530088394 2.2619706551292764
thorax -5.926744684064948 1.0469357159735497 -1.0702349413543937
lowerneck -16.47777092048177 -3.3787271472435982 -1.6397655411346688
upperneck 21.46991027766833 -4.559723953811251 -0.06287070568245201
head 10.07802220481899 -2.257872545933842 -0.22974010777066656
lclavicle -4.1483071617466215e-16 -5.027640331844146e-15
lhumerus -37.30480326485273 2.6488961905284842 83.3593742841303
lradius 26.299184125097437
lwrist 7.366787719738678
lhand -25.985260390464273 24.142668165105913
lfingers nan
lthumb 0.32939401099675525 53.74902508364225
rclavicle 3.924210095227649e-15 -7.965436896622388e-16
rhumerus -22.962969702703855 -10.044921618427795 -81.51889696423638
rradius 28.758280418984548
rwrist 0.09190493059792137
rhand -18.317095478614206 nan
rfingers nan
rthumb 8.037147956180405 -6.199980400543149
34
root 4.181589590101316 17.913669391780033 0.8410475237231694 -0.9308689638246725 -3.7678852477735343 -6.908626090574778
lfemur -29.982323879638553 2.311345377501517 -12.130950251528596
ltibia 37.34642961171048
lfoot -9.429119681662662 6.531855889130309
ltoes -6.1723703854096765
rfemur 2.322061304200357 6.662237151175912 33.245498699184886
rtibia 30.979266481005958
rfoot -10.769341854199322 -5.39946048238489
rtoes 5.977278619290745
lowerback nan 1.748050598672813 6.236865800501121
upperback 0.3046743998560214 2.8471253370186176 2.158755659794468
thorax -5.8480689129412 1.2128454114882472 -1.331667462646894
lowerneck -16.639659096780296 -3.373542764610392 -1.613232395220164
upperneck 21.166903315375272 -4.547963515724165 -0.06023893033547145
head 10.176824343485015 -2.252763066389569 -0.13841884962378626
lclavicle -1.170277726307786e-16 2.9374184201271025e-16
lhumerus -37.806084319480476 4.507595997848874 82.14126684975543
lradius 25.572157725883905
lwrist 7.3043299162198885
lhand -25.958559372003517 24.171744792777574
lfingers nan
lthumb 0.9280325952557514 55.09769016364749
rclavicle -1.1841183074631037e-15 -1.2715987451678718e-15
rhumerus -22.423674874373752 -9.9144306642771 -81.50037806889574
rradius 29.742860799305326
rwrist -0.48827816912003685
rhand -18.411745082399253 nan
rfingers nan
rthumb 7.885885599686551 -6.019379798005225
